<svg width="173" height="73" viewBox="0 0 173 73" fill="none" xmlns="http://www.w3.org/2000/svg">
<path d="M169.969 36.6952C169.8 35.8841 169.006 35.363 168.195 35.5313L154.977 38.2748C154.166 38.4431 153.644 39.2372 153.813 40.0483C153.981 40.8594 154.775 41.3805 155.586 41.2122L167.336 38.7736L169.775 50.5232C169.943 51.3343 170.737 51.8554 171.548 51.687C172.359 51.5187 172.88 50.7246 172.712 49.9135L169.969 36.6952ZM0.236593 1.80858C28.4112 45.8314 62.6354 67.1655 93.9914 71.2996C125.354 75.4347 153.677 62.3212 169.754 37.823L167.246 36.177C151.823 59.6789 124.645 72.3153 94.3835 68.3254C64.1146 64.3345 30.5888 43.6686 2.76341 0.191419L0.236593 1.80858Z" fill="#2E9C5D"/>
</svg>
