<svg width="195" height="58" viewBox="0 0 195 58" fill="none" xmlns="http://www.w3.org/2000/svg">
<path d="M0.858126 46.9727C0.320927 46.3421 0.396662 45.3953 1.0273 44.8581L11.3041 36.1038C11.9347 35.5666 12.8814 35.6424 13.4186 36.273C13.9558 36.9036 13.8801 37.8504 13.2495 38.3876L4.11456 46.1692L11.8962 55.3041C12.4334 55.9347 12.3576 56.8814 11.727 57.4187C11.0964 57.9559 10.1496 57.8801 9.61243 57.2495L0.858126 46.9727ZM194.62 2.95008C156.743 39.0029 121.023 51.1782 88.4446 53.7862C72.1858 55.0879 56.7459 54.004 42.2773 52.3537C27.7336 50.6949 14.3636 48.4939 1.88038 47.4952L2.11962 44.5048C14.6364 45.5061 28.3086 47.7411 42.6173 49.3731C57.0011 51.0136 72.2236 52.0752 88.2052 50.7958C120.108 48.2418 155.18 36.3489 192.551 0.777094L194.62 2.95008Z" fill="#2E9C5D"/>
</svg>
