<svg width="173" height="80" viewBox="0 0 173 80" fill="none" xmlns="http://www.w3.org/2000/svg">
<path d="M162.996 78.9954C162.426 79.5961 161.476 79.6207 160.876 79.0502L151.086 69.7542C150.486 69.1838 150.461 68.2343 151.031 67.6336C151.602 67.0329 152.551 67.0083 153.152 67.5788L161.854 75.8419L170.117 67.1401C170.687 66.5394 171.637 66.5149 172.238 67.0853C172.838 67.6558 172.863 68.6052 172.292 69.2059L162.996 78.9954ZM0.352178 19.2218C47.4932 -3.35122 87.8222 -3.45265 116.651 9.55382C145.487 22.5632 162.651 48.6312 163.408 77.9237L160.409 78.0013C159.683 49.9001 143.241 24.8411 115.418 12.2884C87.5879 -0.267177 48.2045 -0.365649 1.64782 21.9276L0.352178 19.2218Z" fill="#2E9C5D"/>
</svg>
