<svg width="296" height="399" viewBox="0 0 296 399" fill="none" xmlns="http://www.w3.org/2000/svg">
<path d="M0 330.128C0 319.082 8.9543 310.128 20 310.128H276C287.046 310.128 296 319.082 296 330.128V378.5C296 389.546 287.046 398.5 276 398.5H148H20C8.9543 398.5 0 389.546 0 378.5V330.128Z" fill="black"/>
<path d="M209.591 14.5229C209.062 14.5229 208.687 14.007 208.849 13.5035L212.549 2.05071C212.722 1.51377 213.222 1.14992 213.787 1.14992C214.354 1.14992 214.856 1.51791 215.027 2.05912L218.64 13.5077C218.798 14.0107 218.423 14.5229 217.896 14.5229C217.553 14.5229 217.251 14.3 217.15 13.9731L216.79 12.8087C216.475 11.7895 215.533 11.0945 214.466 11.0945H213.06C211.988 11.0945 211.038 11.7873 210.71 12.8087L210.334 13.9814C210.23 14.304 209.93 14.5229 209.591 14.5229ZM212.295 7.79374C211.98 8.78482 212.72 9.7955 213.76 9.7955C214.8 9.7955 215.54 8.78481 215.225 7.79373C214.772 6.3637 212.748 6.3637 212.295 7.79374ZM224.924 14.7784C224.151 14.7784 223.441 14.5584 222.794 14.1183C222.148 13.6711 221.631 13.0465 221.244 12.2444C220.858 11.4352 220.664 10.484 220.664 9.3909C220.664 8.30488 220.854 7.36438 221.234 6.56938C221.614 5.77439 222.118 5.16394 222.744 4.73805C223.378 4.30506 224.071 4.08858 224.824 4.08858C225.524 4.08858 226.138 4.26956 226.664 4.63157C227.198 4.99358 227.611 5.5153 227.904 6.19672C228.167 6.80644 228.312 7.52982 228.34 8.36685C228.345 8.53245 228.21 8.6669 228.044 8.6669C227.879 8.6669 227.746 8.53242 227.736 8.36703C227.703 7.82254 227.579 7.35464 227.364 6.96333C227.118 6.50194 226.794 6.15415 226.394 5.91991C225.994 5.67858 225.564 5.55788 225.104 5.55788C224.584 5.55788 224.108 5.71404 223.674 6.02636C223.248 6.33158 222.904 6.77169 222.644 7.34664C222.391 7.9145 222.264 8.59591 222.264 9.3909C222.264 10.2001 222.391 10.8957 222.644 11.4778C222.904 12.0598 223.248 12.507 223.674 12.8193C224.108 13.1316 224.584 13.2878 225.104 13.2878C225.538 13.2878 225.954 13.1671 226.354 12.9258C226.761 12.6845 227.094 12.3331 227.354 11.8717C227.574 11.4758 227.701 11.0114 227.735 10.4786C227.746 10.3133 227.879 10.1788 228.044 10.1788C228.21 10.1788 228.345 10.3133 228.339 10.4789C228.311 11.3364 228.159 12.0739 227.884 12.6916C227.584 13.373 227.174 13.8911 226.654 14.2461C226.141 14.601 225.564 14.7784 224.924 14.7784ZM228.218 12.1333C228.193 12.4197 227.776 12.4238 227.744 12.1379V0.745165C227.744 0.333622 228.078 0 228.49 0C228.927 0 229.271 0.375576 229.232 0.811602L228.218 12.1333ZM236.78 14.7784C236.007 14.7784 235.297 14.5584 234.65 14.1183C234.003 13.6711 233.487 13.0465 233.1 12.2444C232.713 11.4352 232.52 10.484 232.52 9.3909C232.52 8.30488 232.71 7.36438 233.09 6.56938C233.47 5.77439 233.973 5.16394 234.6 4.73805C235.233 4.30506 235.927 4.08858 236.68 4.08858C237.38 4.08858 237.993 4.26956 238.52 4.63157C239.053 4.99358 239.467 5.5153 239.76 6.19672C240.022 6.80644 240.167 7.52983 240.195 8.36687C240.2 8.53246 240.066 8.6669 239.9 8.6669C239.734 8.6669 239.601 8.53243 239.591 8.36704C239.558 7.82255 239.435 7.35464 239.22 6.96333C238.973 6.50194 238.65 6.15415 238.25 5.91991C237.85 5.67858 237.42 5.55788 236.96 5.55788C236.44 5.55788 235.963 5.71404 235.53 6.02636C235.103 6.33158 234.76 6.77169 234.5 7.34664C234.247 7.9145 234.12 8.59591 234.12 9.3909C234.12 10.2001 234.247 10.8957 234.5 11.4778C234.76 12.0598 235.103 12.507 235.53 12.8193C235.963 13.1316 236.44 13.2878 236.96 13.2878C237.393 13.2878 237.81 13.1671 238.21 12.9258C238.617 12.6845 238.95 12.3331 239.21 11.8717C239.43 11.4758 239.556 11.0114 239.59 10.4786C239.601 10.3133 239.734 10.1788 239.9 10.1788C240.066 10.1788 240.2 10.3133 240.195 10.4788C240.167 11.3364 240.015 12.0739 239.74 12.6916C239.44 13.373 239.03 13.8911 238.51 14.2461C237.997 14.601 237.42 14.7784 236.78 14.7784ZM240.475 14.5229C240.125 14.5229 239.831 14.2595 239.793 13.9118L239.6 12.1379V0.779999C239.6 0.349218 239.949 0 240.38 0C240.811 0 241.16 0.349217 241.16 0.779999V13.8376C241.16 14.2161 240.853 14.5229 240.475 14.5229Z" fill="black"/>
</svg>
