<svg width="73" height="73" viewBox="0 0 73 73" fill="none" xmlns="http://www.w3.org/2000/svg">
<g clip-path="url(#clip0_0_90)">
<path d="M57.2832 0.5H15.7168C7.31277 0.5 0.5 7.31263 0.5 15.7166V57.2831C0.5 65.6871 7.31277 72.5 15.7168 72.5H57.2832C65.6872 72.5 72.5 65.6871 72.5 57.2831V15.7166C72.5 7.31263 65.6872 0.5 57.2832 0.5Z" fill="url(#paint0_linear_0_90)"/>
<path d="M44.9375 23C42.4648 23 40.4375 25.0273 40.4375 27.5C40.4375 27.9028 40.478 28.3235 40.5793 28.6948L33.4062 32.8438C32.8843 32.2335 32.2378 31.742 31.5101 31.4024C30.7824 31.0629 29.9905 30.883 29.1875 30.875C27.6971 30.8797 26.2691 31.4739 25.2153 32.5278C24.1614 33.5816 23.5672 35.0096 23.5625 36.5C23.5625 39.5938 26.0938 42.125 29.1875 42.125C30.8705 42.125 32.3735 41.3375 33.4062 40.1562L40.5793 44.3053C40.48 44.6956 40.4324 45.0973 40.4375 45.5C40.4375 47.9727 42.4648 50 44.9375 50C47.4102 50 49.4375 47.9727 49.4375 45.5C49.4375 43.0273 47.4102 41 44.9375 41C43.6775 41 42.5233 41.5602 41.702 42.4062L34.5312 38.2572C34.7113 37.7128 34.8125 37.103 34.8125 36.5C34.8125 35.897 34.709 35.3593 34.5312 34.8125L41.7043 30.5938C42.5232 31.442 43.6752 32 44.9375 32C47.4102 32 49.4375 29.9727 49.4375 27.5C49.4375 25.0273 47.4102 23 44.9375 23ZM44.9375 25.25C46.193 25.25 47.1875 26.2445 47.1875 27.5C47.1875 28.7555 46.193 29.75 44.9375 29.75C43.682 29.75 42.6875 28.7555 42.6875 27.5C42.6875 26.2445 43.682 25.25 44.9375 25.25ZM29.1875 33.125C31.064 33.125 32.5625 34.6235 32.5625 36.5C32.5625 38.3765 31.064 39.875 29.1875 39.875C27.311 39.875 25.8125 38.3765 25.8125 36.5C25.8125 34.6235 27.311 33.125 29.1875 33.125ZM44.9375 43.25C46.193 43.25 47.1875 44.2445 47.1875 45.5C47.1875 46.7555 46.193 47.75 44.9375 47.75C43.682 47.75 42.6875 46.7555 42.6875 45.5C42.6875 44.2445 43.682 43.25 44.9375 43.25Z" fill="white"/>
</g>
<defs>
<linearGradient id="paint0_linear_0_90" x1="12.9238" y1="13.6242" x2="173.022" y2="169.06" gradientUnits="userSpaceOnUse">
<stop stop-color="#24F3D2"/>
<stop offset="0.394" stop-color="#0674F0"/>
<stop offset="0.507" stop-color="#6961B5"/>
<stop offset="0.813" stop-color="#F34660"/>
<stop offset="1" stop-color="#EE078D"/>
</linearGradient>
<clipPath id="clip0_0_90">
<rect width="72" height="72" fill="white" transform="translate(0.5 0.5)"/>
</clipPath>
</defs>
</svg>
